<?xml version="1.0" encoding="UTF-8" standalone="no"?>
<!-- Created with Inkscape (http://www.inkscape.org/) -->

<svg
   width="210mm"
   height="297mm"
   viewBox="0 0 210 297"
   version="1.1"
   id="svg225"
   inkscape:version="1.2.2 (b0a8486541, 2022-12-01)"
   sodipodi:docname="logo.svg"
   inkscape:export-filename="logo_2.png"
   inkscape:export-xdpi="96"
   inkscape:export-ydpi="96"
   xmlns:inkscape="http://www.inkscape.org/namespaces/inkscape"
   xmlns:sodipodi="http://sodipodi.sourceforge.net/DTD/sodipodi-0.dtd"
   xmlns:xlink="http://www.w3.org/1999/xlink"
   xmlns="http://www.w3.org/2000/svg"
   xmlns:svg="http://www.w3.org/2000/svg">
  <sodipodi:namedview
     id="namedview227"
     pagecolor="#ffffff"
     bordercolor="#000000"
     borderopacity="0.25"
     inkscape:showpageshadow="2"
     inkscape:pageopacity="0.0"
     inkscape:pagecheckerboard="0"
     inkscape:deskcolor="#d1d1d1"
     inkscape:document-units="mm"
     showgrid="false"
     inkscape:zoom="0.66190376"
     inkscape:cx="131.43905"
     inkscape:cy="529.53318"
     inkscape:window-width="1920"
     inkscape:window-height="996"
     inkscape:window-x="0"
     inkscape:window-y="0"
     inkscape:window-maximized="1"
     inkscape:current-layer="layer3" />
  <defs
     id="defs222">
    <linearGradient
       id="linearGradient24334">
      <stop
         style="stop-color:#000000;stop-opacity:0;"
         offset="0.59183675"
         id="stop24340" />
      <stop
         style="stop-color:#5a5a5a;stop-opacity:1;"
         offset="1"
         id="stop24338" />
    </linearGradient>
    <linearGradient
       id="linearGradient24318"
       inkscape:swatch="gradient">
      <stop
         style="stop-color:#000000;stop-opacity:1;"
         offset="0"
         id="stop24314" />
      <stop
         style="stop-color:#ff0000;stop-opacity:0;"
         offset="1"
         id="stop24316" />
    </linearGradient>
    <clipPath
       clipPathUnits="userSpaceOnUse"
       id="clipPath859">
      <path
         id="path861"
         style="fill:#ffff00;stroke-width:0.264583"
         d="M -0.28267009,0 V 297.06766 H 210.57578 V 0 Z M 103.7332,50.312174 l 12.71964,8.479587 44.65877,74.337579 -58.2259,100.62435 -42.680598,-72.92475 4.239533,-81.403815 z" />
    </clipPath>
    <radialGradient
       inkscape:collect="always"
       xlink:href="#linearGradient24334"
       id="radialGradient24371"
       cx="101.59701"
       cy="139.16125"
       fx="101.59701"
       fy="139.16125"
       r="92.302521"
       gradientTransform="matrix(0.57741111,0,0,1.3892133,42.933767,-54.163409)"
       gradientUnits="userSpaceOnUse"
       spreadMethod="pad" />
    <clipPath
       clipPathUnits="userSpaceOnUse"
       id="clipPath24485">
      <use
         x="0"
         y="0"
         xlink:href="#g24481"
         id="use24487" />
    </clipPath>
  </defs>
  <g
     inkscape:groupmode="layer"
     id="layer2"
     inkscape:label="QR" />
  <g
     inkscape:label="Layer 1"
     inkscape:groupmode="layer"
     id="layer1">
    <g
       id="g24483"
       clip-path="url(#clipPath24485)"
       transform="matrix(1,0,0,0.96324233,4.2333335,4.5652324)">
      <g
         inkscape:label="Clip"
         id="g24481">
        <path
           d="m 83.187851,73.701583 h -27.37181 c -7.549135,0.02254 -13.66333,6.136704 -13.685915,13.68584 v 27.371867 c 0.02254,7.54917 6.136749,13.66338 13.685915,13.68592 h 27.37181 c 7.549161,-0.0225 13.663362,-6.13676 13.685903,-13.68592 V 87.387423 C 96.851169,79.838291 90.736981,73.724132 83.187851,73.701583 Z m 0,41.057707 H 55.816041 V 87.387423 h 27.37181 z m 0,20.52887 h -27.37181 c -7.549158,0.0225 -13.663363,6.13674 -13.685915,13.6859 v 12.18205 c 0,0 16.529751,28.75322 24.078916,28.77576 l 16.978809,0.0999 c 7.549161,-0.0225 13.663362,-6.13676 13.685903,-13.68592 v -27.37182 c -0.02255,-7.54915 -6.13675,-13.66335 -13.685903,-13.6859 z m 0,41.05772 h -27.37181 v -27.37182 h 27.37181 z M 144.77448,73.701583 h -27.37181 c -7.54914,0.02253 -13.66334,6.136698 -13.68593,13.68584 v 27.371867 c 0.0225,7.54917 6.13676,13.66339 13.68593,13.68592 h 27.37181 c 7.54916,-0.0225 13.66336,-6.13676 13.6859,-13.68592 V 87.387423 c -0.0226,-7.54913 -6.13677,-13.663289 -13.6859,-13.68584 z m 0,41.057707 H 117.40267 V 87.387423 h 27.37181 z m -78.694006,-6.84298 h 6.84295 c 1.835092,-0.12562 3.295873,-1.58642 3.421482,-3.42151 v -6.842967 c -0.125618,-1.835086 -1.586397,-3.295868 -3.421482,-3.42149 h -6.84295 c -1.835085,0.125622 -3.295865,1.586404 -3.421483,3.42149 v 6.842967 c 0.125609,1.83509 1.586391,3.29589 3.421483,3.42151 z m 0,61.58662 h 6.84295 c 1.835081,-0.12562 3.295859,-1.5864 3.421482,-3.42148 v -6.84295 c -0.125618,-1.83509 -1.586397,-3.29587 -3.421482,-3.42149 h -6.84295 c -1.835085,0.12562 -3.295865,1.5864 -3.421483,3.42149 v 6.84295 c 0.125623,1.83508 1.586401,3.29586 3.421483,3.42148 z M 127.6671,107.91631 h 6.84295 c 1.83509,-0.12562 3.29587,-1.58642 3.42148,-3.42151 v -6.842967 c -0.12562,-1.835085 -1.5864,-3.295867 -3.42148,-3.42149 h -6.84295 c -1.83508,0.125623 -3.29586,1.586405 -3.42148,3.42149 v 6.842967 c 0.12561,1.83509 1.58639,3.29589 3.42148,3.42151 z m -20.52887,54.74367 h 6.84295 c 1.83508,-0.12562 3.29587,-1.5864 3.42149,-3.42148 v -6.84296 c 0.12562,-1.83508 1.5864,-3.29586 3.42148,-3.42148 h 6.84295 c 1.83508,-0.12562 3.29585,-1.58639 3.42148,-3.42147 v -6.84295 c -0.12562,-1.83508 -1.5864,-3.29586 -3.42148,-3.42148 h -20.52887 c -1.83508,0.12562 -3.29587,1.5864 -3.42149,3.42148 v 20.52886 c 0.12562,1.83508 1.58641,3.29586 3.42149,3.42148 z m 47.90068,-27.37182 h -6.84295 c -1.83508,0.12562 -3.29586,1.5864 -3.42148,3.42148 v 20.52886 c 0.12562,1.83508 1.5864,3.29586 3.42148,3.42148 h 6.84295 c 1.83508,-0.12563 3.29585,-1.5864 3.42147,-3.42148 v -20.52886 c -0.12562,-1.83508 -1.58639,-3.29585 -3.42147,-3.42148 z m -41.05773,41.05772 h -6.84295 c -1.83509,0.12562 -3.29587,1.5864 -3.42149,3.42149 v 6.84295 c 0.12562,1.83508 1.58641,3.29586 3.42149,3.42148 h 6.84295 c 1.83508,-0.12562 3.29587,-1.5864 3.42149,-3.42148 v -6.84295 c -0.12562,-1.83509 -1.5864,-3.29587 -3.42149,-3.42149 z m 35.93618,-0.12492 -1.7214,0.12492 c -1.83508,-0.12562 -3.29585,-1.58639 -3.42148,-3.42147 v -6.84296 c -0.12563,-1.83508 -1.5864,-3.29585 -3.42148,-3.42147 h -20.52885 c -1.83508,0.12562 -3.29585,1.58639 -3.42148,3.42147 v 6.84296 c 0.12563,1.83508 1.5864,3.29585 3.42148,3.42147 h 6.84295 c 1.83508,0.12562 3.29586,1.58641 3.42148,3.42149 v 6.84295 c 0.12562,1.83508 1.58639,3.29585 3.42147,3.42148 l 10.43566,-6.32074 c -0.0387,0.1242 3.071,-1.46149 3.19662,-3.29657 l 0.72451,-0.99688 z"
           id="path273"
           style="display:inline;fill:#3b6593;fill-opacity:1;stroke-width:0.684294"
           sodipodi:nodetypes="ccccccccccccccccccccccccccccccccccccccccccccccccccccccccccccccccccccccccccccccccccccccccccccccccccccccccccccccccccccc" />
        <path
           d="m 99.90902,264.67036 c -1.66,-1.5155 -4.191,-3.8445 -5.6245,-5.1765 -1.4335,-1.331 -4.165,-3.8625 -6.07,-5.6245 -3.7715,-3.488 -12.169,-11.578 -13.9765,-13.464 -0.62,-0.6475 -3.074,-3.202 -5.4525,-5.6765 -11.5715,-12.04 -18.264501,-19.9755 -26.182501,-31.0445 -9.441,-13.198 -17.134,-26.437 -21.586,-37.1475 -2.554,-6.1445 -4.8085,-12.8975 -6.1985,-18.569 -2.22,-9.0565 -3.949,-21.562 -4.789,-34.642 -0.7474999,-11.655 -0.9539999,-31.472997 -0.4844999,-46.675497 0.1735,-5.6145 0.3565,-10.275 0.407,-10.357 0.05,-0.081 0.6989999,-0.3265 1.4414999,-0.545 11.9605,-3.518 21.997,-7.3435 36.505,-13.9145 10.658001,-4.8265 27.338001,-13.1795 33.936501,-16.9945 7.5035,-4.338 15.914,-9.769 20.283,-13.0985 l 1.059,-0.8075 1.938,1.4705 c 7.9025,5.9955 20.7835,13.4545 38.7805,22.4565 18.216,9.112 31.9275,15.048 48.047,20.8 1.1155,0.3985 1.473,0.613 1.5365,0.921 0.04,0.222 0.1825,6.984 0.306,15.0275 0.534,34.826497 -0.807,61.557497 -3.8695,77.165997 -3.336,16.9935 -12.6995,36.015 -28.2835,57.4545 -2.948,4.056 -9.3145,12.038 -12.533,15.7135 -5.4625,6.2385 -13.8045,14.72 -26.335,26.7755 -7.9495,7.6475 -19.5295,18.6125 -19.718,18.6705 -0.065,0.0215 -1.4765,-1.2035 -3.137,-2.7185 v 0 m 5.0505,-8.236 c 11.7125,-10.3305 25.6595,-23.693 33.323,-31.9265 4.4975,-4.8325 10.6435,-12.1275 15.0045,-17.8105 2.4355,-3.1735 5.1005,-6.9435 4.988,-7.0565 -0.216,-0.2155 -12.7355,5.517 -13.282,6.082 -0.17,0.1755 -0.4485,0.8255 -0.6195,1.444 -1.1875,4.3005 -3.272,10.4625 -4.9785,14.718 -0.8915,2.222 -1.2215,2.7365 -1.0235,1.594 0.34,-1.962 2.329,-10.119 3.587,-14.7085 0.069,-0.253 -0.9995,0.886 -2.374,2.5305 -1.374,1.645 -2.612,3.1245 -2.7505,3.2875 -0.139,0.163 -0.682,2.4835 -1.208,5.1565 -0.5255,2.672 -1.063,5.119 -1.195,5.437 -0.279,0.6725 -7.713,7.3805 -18.5655,16.752 -3.241,2.799 -4.0235,3.4135 -3.457,2.717 2.235,-2.748 3.305,-4.033 5.6075,-6.735 4.2455,-4.9815 8.407,-9.619 12.135,-13.522 2.25,-2.3565 3.589,-3.915 3.9075,-4.548 0.536,-1.068 1.2525,-3.045 1.143,-3.155 -0.035,-0.037 -1.151,1.093 -2.4725,2.5155 -4.178,4.497 -16.9025,17.088 -20.8015,20.583 -2.062,1.849 -4.861,4.4005 -6.219,5.671 l -2.4685,2.31 -1.67,-1.4585 c -12.419,-10.849 -21.813,-20.0505 -29.747,-29.1395 -0.711,-0.815 -1.3275,-1.447 -1.37,-1.4045 -0.1025,0.1025 1.093,3.1805 1.7045,4.387 0.336,0.664 1.702,2.203 4.3965,4.9555 3.8235,3.906 5.4055,5.6125 9.789,10.556 3.471,3.9135 7.4865,8.6465 8.4145,9.915 0.397,0.5435 -0.02,0.2595 -1.4855,-1.009 -0.67,-0.581 -2.9905,-2.5675 -5.156,-4.4155 -3.373,-2.878 -5.896,-5.0725 -12.3555,-10.7455 -0.6295,-0.5525 -1.7085,-1.5495 -2.398,-2.215 l -1.254,-1.21 -0.478,-2.0975 c -1.662,-7.285 -1.989,-8.616 -2.2525,-9.169 -0.161,-0.339 -1.0735,-1.555 -2.027,-2.703 -2.688,-3.2345 -2.987,-3.5675 -2.8445,-3.1625 0.5325,1.5145 2.933,12.1575 3.3405,14.812 l 0.1155,0.75 -0.405,-0.75 c -0.5865,-1.0865 -2.403,-6.581 -4.001,-12.108 -0.763,-2.638 -1.487,-5.015 -1.6095,-5.283 -0.1755,-0.386 -0.8845,-0.7855 -3.432,-1.933 -5.634501,-2.5385 -11.234001,-4.9645 -11.301501,-4.897 -0.122,0.123 5.853,7.9115 9.166501,11.9475 11.683,14.233 24.163,27.0075 45.1805,46.246 0.486,0.444 0.9355,0.8075 1.0005,0.8075 0.064,0 1.1435,-0.905 2.3985,-2.012 v 0 m -46.6155,-47.0985 c -1.6065,-1.674 -2.201,-2.5075 -1.96,-2.749 0.176,-0.1755 3.3075,1.104 3.4205,1.3975 0.133,0.3465 0.656,2.7685 0.656,3.0385 0,0.4125 -0.431,0.0695 -2.1165,-1.687 m 87.8015,1.571 c 0,-0.601 0.6095,-2.9985 0.816,-3.2115 0.3165,-0.325 3.1175,-1.3965 3.3215,-1.2705 0.096,0.0595 0.1745,0.2185 0.1745,0.353 0,0.2785 -3.881,4.42 -4.142,4.42 -0.0935,0 -0.17,-0.1305 -0.17,-0.291 v 0 m -41.2195,29.694 c 11.686,-10.2295 25.664,-25.1165 34.524,-36.767 11.095,-14.589 19.0105,-28.732 26.098,-46.6255 5.6325,-14.222 9.1015,-28.4645 10.5045,-43.1325 0.605,-6.3175 0.5565,-18.526997 -0.098,-24.936497 -0.875,-8.5645 -2.1855,-16.403 -3.1815,-19.022 -0.1455,-0.3825 -1.592,-1.1775 -7.7315,-4.249 -7.343,-3.674 -24.1175,-11.917 -27.708,-13.6165 -0.98,-0.4635 -4.4815,-2.132 -7.7815,-3.7075 -11.2945,-5.391 -22.4985,-10.724 -24.42,-11.6225 l -1.92,-0.899 -1.698,0.789 c -0.934,0.434 -4.119,1.954 -7.079,3.378 -2.96,1.4235 -8.1655,3.919 -11.5685,5.5445 -15.5995,7.454 -26.3805,12.678 -37.057501,17.959 l -11.5575,5.7165 -0.3005,1.3195 c -0.9485,4.1725 -2.092,13.649 -2.7625,22.9095 -0.3045,4.2015 -0.309,16.976497 -0.005,20.530997 1.217,14.3395 3.72,26.689 7.606,37.537 6.4725,18.0655 13.7725,32.0885 25.112001,48.2415 6.632,9.447 14.992,19.16 25.77,29.9425 5.144,5.1455 12.8775,12.2435 13.3405,12.2435 0.0905,0 0.9535,-0.69 1.9165,-1.5335 h -0.003 m -44.4065,-51.6795 c -4.8055,-7.699 -10.935501,-19.336 -14.601501,-27.7175 -6.025,-13.7755 -8.5425,-24.268 -9.869,-41.128 -0.3755,-4.7675 -0.312,-21.536997 0.103,-27.467997 0.376,-5.3705 0.9465,-12.0625 1.2645,-14.836 l 0.2175,-1.899 2.4605,-1.086 c 1.353,-0.597 4.654,-2.115 7.3355,-3.374 2.681,-1.2585 9.051001,-4.2495 14.156001,-6.6465 17.049,-8.007 23.7645,-11.0695 30.0505,-13.7045 1.9365,-0.812 3.6945,-1.569 3.9065,-1.683 0.2125,-0.113 0.4255,-0.1675 0.4725,-0.1195 0.115,0.115 -1.809,1.3235 -5.3685,3.372 -18.283,10.523 -23.794,13.553 -31.78,17.471 -6.359001,3.12 -13.664001,6.138 -17.311001,7.152 l -1.1375,0.3165 -0.105,0.956 c -0.281,2.5535 -0.6905,13.0495 -0.7915,20.2685 -0.193,13.851497 0.471,22.215497 2.762,34.779997 3.3135,18.172 8.159,32.502 18.727001,55.385 0.4235,0.9175 0.743,1.695 0.71,1.7285 -0.03,0.032 -0.574,-0.762 -1.2015,-1.7675 v 0 m 84.126,1.5785 c 0,-0.0425 0.5145,-1.1585 1.1435,-2.484 10.792,-22.7485 16.0445,-38.3375 19.195,-56.9715 2.392,-14.145 2.8665,-26.6955 1.6795,-44.436497 -0.1585,-2.371 -0.347,-5.365 -0.4195,-6.652 l -0.1305,-2.3395 -0.5625,-0.1795 c -10.384,-3.314 -22.071,-8.9225 -39.1865,-18.805 -1.959,-1.131 -5.8555,-3.377 -8.659,-4.99 -5.5005,-3.165 -7.579,-4.434 -7.2675,-4.437 0.4895,0 12.698,5.449 20.3325,9.0835 2.285,1.087 4.183,1.977 4.2175,1.977 0.035,0 2.032,0.9365 4.4385,2.0815 5.678,2.7015 12.3265,5.7855 21.605,10.022 4.114,1.878 7.548,3.5355 7.631,3.684 0.29,0.5195 1.409,11.6375 1.977,19.649 0.4245,5.994497 0.4255,17.301497 0,23.248997 -0.9445,13.239 -2.269,20.7115 -5.2665,29.718 -2.508,7.5355 -5.0895,13.6085 -9.4825,22.3115 -3.6995,7.3285 -6.0125,11.4765 -9.5945,17.203 -1.329,2.1255 -1.6515,2.5775 -1.6515,2.3165 h 10e-4 m 5.812,10.6125 c 4.4365,-1.612 8.582,-3.1945 9.1835,-3.5055 0.347,-0.1795 1.3845,-1.6165 3.1465,-4.358 5.0065,-7.7905 7.558,-12.2235 10.929,-18.987 2.6,-5.2175 5.5595,-11.812 5.301,-11.812 -0.0615,0 -0.909,0.78 -1.8845,1.734 l -1.7735,1.734 -1.7275,3.563 c -1.893,3.903 -3.772,7.219 -8.607,15.187 -4.407,7.2625 -5.712,9.2415 -6.192,9.3935 -0.5585,0.177 -7.1315,3.101 -8.2885,3.687 -0.9925,0.503 -2.079,1.57 -3.4805,3.4185 -1.2365,1.632 -1.234,1.623 -0.4105,1.326 0.391,-0.1415 2.103,-0.7625 3.804,-1.3805 v 0 m -90.547,1.133 c -0.103,-0.181 -0.8465,-1.13 -1.651,-2.1095 -1.763,-2.146 -2.3675,-2.4915 -10.668001,-6.0935 -0.473,-0.205 -1.059,-1.022 -2.984,-4.159 -6.0445,-9.8515 -9.8615,-16.3805 -11.5435,-19.7465 -1.1695,-2.3405 -2.051,-3.8665 -2.449,-4.2405 -1.1365,-1.068 -3.9475,-3.2775 -4.045,-3.18 -0.3185,0.3185 4.107,9.6735 7.5465,15.9515 2.3195,4.2345 5.1785,8.948 8.0745,13.312 3.3615,5.0655 3.536,5.292 4.347,5.6395 1.0575,0.4525 4.625,1.825 8.204001,3.1555 5.347,1.9875 5.488,2.0275 5.1685,1.4705 m -5.1965,-7.031 c -0.0795,-0.129 -0.869501,-1.3315 -1.756501,-2.672 -5.4345,-8.2145 -10.84,-18.581 -15.9345,-30.5615 -5.136,-12.0785 -8.4675,-27.0085 -9.8465,-44.1325 l -0.293,-3.6335 -1.9015,-2.741 c -5.2735,-7.6015 -9.6055,-13.521997 -9.895,-13.522497 -0.053,0 -0.025,1.495 0.0535,3.322497 0.1355,3.103 0.1735,3.354 0.5775,3.7965 0.4985,0.5465 5.457,6.9185 6.1,7.839 0.3505,0.502 0.5605,1.463 1.147,5.25 0.395,2.5495 1.0685,6.5335 1.497,8.854 1.2045,6.526 1.689,9.3455 1.689,9.8215 0,0.6115 -4.5625,8.9005 -5.073,9.2155 -0.097,0.06 -0.1765,0.285 -0.1765,0.499 0,0.5575 1.684,5.97 2.8175,9.0565 0.53,1.444 1.0435,2.892 1.14,3.219 0.2295,0.7725 0.817,1.2705 4.1655,3.5305 3.9995,2.7 5.1265,3.525 5.5235,4.042 0.1935,0.252 1.999,3.2 4.012,6.5515 3.5195,5.859 5.696,9.696 9.2405,16.2885 1.2295,2.2885 1.79,3.1475 2.2,3.375 0.3025,0.1675 1.4935,0.8715 2.647,1.5635 1.153,0.692 2.122501,1.2615 2.154501,1.2655 0.03,0 -0.005,-0.0985 -0.086,-0.227 h -0.002 m -18.443001,-31.6055 c -1.39,-0.818 -7.06,-4.4205 -8.664,-5.504 -0.5905,-0.399 -1.1615,-0.889 -1.2685,-1.0895 -0.2535,-0.4735 -2.4395,-9.1025 -2.4395,-9.63 0,-0.222 0.7255,-1.543 1.6125,-2.9355 1.6085,-2.525 2.2315,-3.344 2.4085,-3.1665 0.053,0.0535 0.349,1.2285 0.661,2.6145 0.831,3.693 2.535,10.012 3.511,13.0205 l 0.8515,2.625 2.359,2.391 c 1.2975,1.3145 2.3195,2.3905 2.2715,2.3905 -0.045,0 -0.6345,-0.322 -1.303,-0.716 v 0 m 118.218001,29.912 c 1.3405,-0.8095 2.5345,-1.5715 2.654,-1.6935 0.119,-0.1225 1.376,-2.3735 2.7935,-5.0035 3.806,-7.0625 9.7895,-17.6795 11.4895,-20.3875 0.3465,-0.5525 1.3735,-1.4365 3.374,-2.906 1.5815,-1.1615 3.4325,-2.534 4.1125,-3.0495 l 1.2365,-0.9375 1.005,-3 c 3.5735,-10.6635 6.0315,-27.7935 6.7125,-46.78 l 0.118,-3.2805 -0.927,1.593 c -0.5095,0.877 -0.9815,1.9315 -1.0485,2.344 -0.114,0.6995 -0.5775,5.0765 -1.7175,16.218 -0.472,4.6145 -1.28,11.39 -1.5395,12.9075 l -0.139,0.814 -1.649,-2.349 -1.6485,-2.35 0.753,-3.9015 c 1.214,-6.292 3.1855,-17.17 3.6705,-20.251 0.2465,-1.5675 0.575,-3.0955 0.73,-3.395 0.1555,-0.3 0.993,-1.678 1.8615,-3.062 l 1.579,-2.517 0.0765,-1.902 c 0.045,-1.045997 0.03,-1.873497 -0.02,-1.838997 -0.055,0.037 -1.07,1.386997 -2.2565,3.005497 -1.1855,1.618 -2.906,3.9155 -3.823,5.1035 l -1.6665,2.161 -0.2505,4.1475 c -0.429,7.096 -0.891,11.1955 -2.055,18.209 -1.78,10.7225 -4.3985,19.9165 -8.7845,30.8385 l -0.488,1.2145 0.956,-0.9335 c 2.697,-2.6345 2.715,-2.667 4.237,-7.551 1.45,-4.6585 3.34,-11.302 3.917,-13.772 0.1865,-0.7995 0.4075,-1.453 0.4905,-1.453 0.25,0 3.1595,3.6095 3.2725,4.06 0.224,0.8925 -2.2115,12.3585 -2.8215,13.2835 -0.136,0.206 -1.798,1.4485 -3.693,2.761 -1.8955,1.3125 -4.2035,2.9175 -5.1295,3.5665 l -1.683,1.18 -1.61,3.558 c -3.398,7.51 -6.452,13.417 -9.834,19.0195 -1.8005,2.9835 -4.724,7.4485 -4.9795,7.606 -0.0985,0.0615 -0.1785,0.1955 -0.1785,0.2985 0,0.103 0.105,0.122 0.2345,0.0425 0.1285,-0.08 1.331,-0.8075 2.6715,-1.617 l -0.003,-5e-4 m -132.917501,-51.1545 0.4855,-2.3655 -0.4815,-3.6345 c -0.9425,-7.1135 -1.747,-14.5005 -2.3835,-21.8805 l -0.232,-2.684 -1.585,-1.9095 c -0.8715,-1.0505 -1.667,-1.9945 -1.768,-2.0975 -0.194,-0.1985 -0.1495,0.685 0.3445,6.8435 0.475,5.932 0.9345,9.9645 1.857,16.312 0.662,4.5595 2.0725,12.088 2.546,13.5935 0.485,1.542 0.434,1.6335 1.217,-2.178 v 5e-4 m 4.988,-34.8995 c -0.0845,-2.2795 0.2225,-1.644 -4.831,-10.013997 -1.8775,-3.11 -3.516,-5.9645 -3.641,-6.343 -0.198,-0.6 -0.1735,-0.837 0.192,-1.845 0.723,-1.9965 4.574,-8.75 4.9895,-8.75 0.0705,0 0.0705,2.8895 0,6.4215 l -0.127,6.422 1.199,3.4685 c 1.901,5.498497 1.709,5.416497 1.9735,0.8435 0.3645,-6.296 0.571,-9.7185 0.7895,-13.0735 l 0.204,-3.136 -1.7345,-2.301 c -0.9545,-1.266 -1.751,-2.3235 -1.7695,-2.3505 -0.02,-0.0265 -0.4395,0.5635 -0.9345,1.3125 -0.494,0.749 -2.448,3.438 -4.341,5.977 l -3.442,4.6155 v 1.993 1.9935 l 1.284,1.735 c 1.6735,2.26 6.4145,9.117497 8.559,12.378997 0.9285,1.4115 1.691,2.568 1.6945,2.5705 0,0 -0.025,-0.861 -0.065,-1.9185 h 5e-4 m 154.600501,-1.9685 c 2.157,-3.711 4.739,-8.049497 5.7925,-9.732997 1.1655,-1.8625 1.1915,-1.933 1.1865,-3.187 0,-1.2025 -0.05,-1.327 -0.659,-1.986 -0.359,-0.387 -0.7205,-0.703 -0.8025,-0.703 -0.0825,0 -0.7685,1.118 -1.5255,2.484 -0.756,1.3665 -2.111,3.666 -3.0095,5.1095 l -1.6345,2.624997 -0.0965,3.328 c -0.054,1.8305 -0.0725,3.328 -0.045,3.328 0.03,0 0.3855,-0.5695 0.7905,-1.2655 h 0.003 m 0.424,-10.242497 c 2.036,-2.6095 3.94,-5.284 4.048,-5.685 0.073,-0.2725 -0.108,-0.8115 -0.534,-1.593 -1.181,-2.1655 -3.2,-5.592 -3.2595,-5.5325 -0.03,0.032 0.2395,1.692 0.605,3.687 0.3655,1.995 0.6195,3.8045 0.565,4.02 -0.0545,0.2165 -0.6935,1.305 -1.4195,2.4195 -1.2715,1.952 -1.3195,2.068 -1.3195,3.1775 0,0.6335 0.069,1.072 0.1535,0.9745 0.085,-0.0985 0.607,-0.759 1.161,-1.468 v 0 m 6.89,-18.826 -0.05,-11.3555 -3.837,4.392 c -2.1105,2.4155 -4.438,5.026 -5.1725,5.801 l -1.335,1.409 0.515,2.9975 c 0.2825,1.648 0.6695,4.2625 0.8595,5.8095 l 0.345,2.812 0.1385,-2.906 c 0.076,-1.598 0.0875,-4.235 0.025,-5.859 -0.062,-1.624 -0.045,-2.9525 0.05,-2.952 0.283,0 3.0195,4.315 6.9815,11.0025 l 1.2425,2.097 0.142,-0.946 c 0.078,-0.521 0.1205,-6.0565 0.094,-12.302 h 0.001 m -171.418001,6.1765 c 0.928,-1.41 2.063,-3.1535 2.523,-3.875 0.459,-0.7205 1.288,-2.0085 1.8425,-2.8615 l 1.007,-1.551 -1.463,-1.801 c -1.613,-1.985 -2.8995,-3.4575 -4.6605,-5.3365 l -1.1625,-1.24 -0.1205,2.365 c -0.0665,1.3005 -0.1165,5.7815 -0.1105,9.9585 0.005,5.9445 0.059,7.519 0.2335,7.25 0.123,-0.1895 0.983,-1.498 1.911,-2.9085 v 0 m 10.5935,-3.2395 c 0,-0.7065 0.9075,-4.7605 1.6965,-7.574 0.433,-1.545 0.7975,-2.9545 0.811,-3.1325 0.015,-0.198 -1.1305,-1.337 -2.966,-2.9495 -2.574,-2.262 -3.0295,-2.5925 -3.2805,-2.3815 -0.161,0.1345 -1.2395,1.0265 -2.3975,1.9825 -2.105,1.737 -2.1055,1.7375 -1.842,2.2475 0.1455,0.2805 1.634,2.699 3.308,5.373 1.6745,2.675 3.3305,5.3505 3.681,5.946 0.623,1.0585 0.9895,1.239 0.9895,0.4885 v 0 m 153.986001,-7.922 c 1.3625,-1.7395 2.6365,-3.3695 2.831,-3.6225 0.349,-0.4535 0.348,-0.4665 -0.0855,-1.055 -0.7155,-0.971 -3.0475,-3.6895 -3.165,-3.6895 -0.0595,0 -1.1885,1.082 -2.508,2.405 l -2.3995,2.405 0.8555,3.8645 c 0.4705,2.125 0.858,3.9325 0.8605,4.0165 0.005,0.2155 0.78,-0.7105 3.611,-4.324 v 0 m -141.069501,-9.5755 3.1625,-1.584 1.6695,-2.0255 c 0.918,-1.1145 2.8475,-3.5365 4.288,-5.3825 4.441,-5.693 4.0065,-5.3365 10.118501,-8.2935 10.1375,-4.9035 13.5275,-6.4545 19.1015,-8.74 l 2.79,-1.1445 2.234,-3.3645 c 1.2285,-1.851 2.192,-3.4065 2.1415,-3.457 -0.045,-0.048 -3.3655,1.5535 -7.367,3.564 -13.2935,6.6805 -24.320501,11.9635 -33.056001,15.838 -7.801,3.459 -19.765,8.298 -20.518,8.298 -0.1615,0 -0.294,0.069 -0.294,0.153 0,0.084 1.6665,1.1585 3.703,2.3865 2.0365,1.229 4.8425,2.926 6.2345,3.771 1.392,0.845 2.553,1.543 2.58,1.5505 0.025,0.0105 1.4725,-0.699 3.212,-1.5695 m 134.784501,-2.299 5.8925,-3.6825 -0.6275,-0.235 c -7.9335,-2.973 -19.5735,-8.006 -29.314,-12.675 -5.4125,-2.5945 -21.431,-10.5445 -26.53,-13.167 -2.1145,-1.0875 -3.9075,-1.978 -3.986,-1.9795 -0.1375,0 0.7795,1.4785 3.0875,4.987 1.2795,1.9445 0.801,1.642 6.3355,4.0125 3.957,1.6945 6.409,2.836 16.4055,7.6365 l 5.8125,2.7915 1.291,1.4875 c 0.71,0.8185 3.097,3.787 5.3055,6.5965 l 4.0155,5.109 2.9435,1.4645 c 1.619,0.8055 3.0635,1.436 3.2105,1.4 0.146,-0.037 2.9175,-1.721 6.158,-3.7455 v -5e-4 m -122.364501,-4.014 c 1.378,-0.7335 8.243001,-4.2295 15.255501,-7.768 11.239,-5.672 15.768,-7.902 28.0775,-13.827 1.6245,-0.782 2.9535,-1.448 2.954,-1.4805 0,-0.032 0.168,-2.421 0.372,-5.308 0.2045,-2.8875 0.3725,-5.646 0.374,-6.1305 v -0.8795 l -2.297,1.3665 c -1.2625,0.752 -3.351,1.94 -4.64,2.64 -1.289,0.7005 -2.563,1.427 -2.8305,1.6145 -0.2675,0.188 -1.0945,1.294 -1.8375,2.4585 -0.743,1.1645 -2.346,3.636 -3.562,5.4925 l -2.2105,3.375 -1.8575,0.998 c -5.9215,3.1825 -18.361,9.211 -22.951,11.123 -0.9795,0.408 -1.965,0.862 -2.1885,1.008 -0.318,0.208 -2.623501,3.0645 -5.178501,6.417 -0.098,0.1285 -0.136,0.2345 -0.084,0.2345 0.0535,0 1.223,-0.6 2.6015,-1.334 h 0.0025 m 101.385001,-1.338 c -2.3555,-3.022 -3.442,-4.2115 -3.999,-4.3805 -2.0205,-0.6135 -15.8065,-7.2045 -22.7875,-10.895 l -3.4675,-1.833 -0.9385,-1.4515 c -0.516,-0.7985 -2.073,-3.2245 -3.459,-5.3915 -1.386,-2.1675 -2.694,-4.099 -2.906,-4.2945 -0.212,-0.1945 -1.019,-0.668 -1.792,-1.052 -1.991,-0.989 -5.292,-2.8065 -6.8975,-3.7965 -0.7515,-0.4635 -1.4175,-0.7925 -1.4795,-0.73 -0.0615,0.0615 0.0695,2.413 0.2915,5.2265 0.2215,2.813 0.4015,5.521 0.4005,6.018 v 0.9035 l 2.297,1.092 c 1.2635,0.6005 4.7435,2.246 7.7345,3.6565 5.474,2.5825 32.3745,16.0815 36.5615,18.3475 1.237,0.6695 2.312,1.2255 2.3885,1.235 0.076,0.0105 -0.799,-1.1845 -1.9445,-2.6545 h -0.003"
           id="path79"
           style="opacity:1;mix-blend-mode:normal;fill:url(#radialGradient24371);fill-opacity:1;fill-rule:nonzero;stroke-width:0.5"
           clip-path="url(#clipPath859)"
           transform="matrix(1,0,0,0.84569132,-1.3017573,14.179228)"
           sodipodi:nodetypes="ccccccccccccccccccccccccccsccccccccscccccccccccccccccsccccccccccccccccccccccssccccsccccsssccccccscccccsccscccccccscccccccccccccccccccccccscccccccsccccsccccccccccccccsccccccccsccccccsscscccccccccccccccscscccsccccccccccsccccccsscccccccccccccccccccccccccccccccccccsccccccccsccccccccccccsccccccscccccccccccccccccccsccsccccsccccccsccscscccccccccccccccccccccccccccscccccccccssccccsccccsccccccccccccsscsccccccsccccccccscccccccccccccscccsccscccccccccccccccccsccc" />
      </g>
    </g>
  </g>
  <g
     inkscape:groupmode="layer"
     id="layer3"
     inkscape:label="test">
    <text
       xml:space="preserve"
       style="font-size:25.4px;text-align:center;text-anchor:middle;display:inline;fill:#3b6593;fill-opacity:1;stroke-width:0.264583"
       x="88.74247"
       y="254.96355"
       id="text917"><tspan
         sodipodi:role="line"
         style="font-style:normal;font-variant:normal;font-weight:normal;font-stretch:normal;font-size:25.4px;font-family:UnYetgul;-inkscape-font-specification:UnYetgul;text-align:center;text-anchor:middle;fill:#3b6593;fill-opacity:1;stroke-width:0.264583"
         x="88.74247"
         y="254.96355"
         id="tspan27831"><tspan
           style="fill:#5a5a5a;fill-opacity:1"
           id="tspan25426">CLOAK</tspan></tspan></text>
    <text
       xml:space="preserve"
       style="font-style:normal;font-variant:normal;font-weight:normal;font-stretch:normal;font-size:25.4px;font-family:UnYetgul;-inkscape-font-specification:UnYetgul;text-align:center;text-anchor:middle;fill:#3b6593;fill-opacity:1;fill-rule:nonzero;stroke-width:0.264583"
       x="143.02228"
       y="254.84923"
       id="text27839"><tspan
         sodipodi:role="line"
         id="tspan27837"
         style="fill:#3b6593;fill-opacity:1;stroke-width:0.264583"
         x="143.02228"
         y="254.84923">QR</tspan></text>
  </g>
</svg>
